<svg width="214.349" height="36.8938" viewBox="0 0 214.349 36.8938" fill="none" xmlns="http://www.w3.org/2000/svg">
<g id="Group">
<path id="Vector" fill-rule="evenodd" clip-rule="evenodd" d="M200.983 28.6379V25.4876H195.09C194.533 25.4876 194.057 25.6372 193.668 25.9357C193.277 26.2339 193.082 26.6308 193.082 27.1252C193.082 27.5573 193.271 27.9175 193.651 28.2058C194.03 28.4944 194.466 28.6389 194.956 28.6389L200.983 28.6379ZM205.771 31.912H193.249C191.843 31.912 190.643 31.4747 189.65 30.6001C188.657 29.7246 188.161 28.618 188.161 27.2794C188.161 25.8792 188.613 24.7213 189.511 23.8049C190.415 22.8881 191.542 22.4303 192.903 22.4303L200.983 22.4296V21.5657C200.983 21.2971 200.933 21.0657 200.832 20.8703C200.731 20.6743 200.569 20.4429 200.347 20.1752C200.034 19.8461 199.716 19.6349 199.382 19.5424C199.046 19.4493 198.577 19.4035 197.981 19.4035H189.332V15.8822H196.764H198.204C199.834 15.8822 201.049 16.0104 201.853 16.2681C202.656 16.5251 203.349 16.9113 203.929 17.4265C204.666 18.1058 205.156 18.8473 205.402 19.6502C205.647 20.453 205.77 21.4833 205.77 22.7385L205.771 31.912ZM186.387 19.2172H181.867V26.4759C181.867 27.1354 182.112 27.6809 182.603 28.1137C183.16 28.5458 183.897 28.7625 184.812 28.7625L186.185 28.7615V31.8815H181.867C180.572 31.8815 179.467 31.4495 178.552 30.5849C178.017 30.0696 177.671 29.5032 177.514 28.886C177.359 28.2679 177.28 27.5369 177.28 26.6927V19.2172H174.334V15.8822H177.28V10.2604H181.867V15.8822H186.387V19.2172ZM167.94 28.6379V25.4876H162.048C161.49 25.4876 161.016 25.6372 160.626 25.9357C160.234 26.2339 160.039 26.6308 160.039 27.1252C160.039 27.5573 160.228 27.9175 160.608 28.2058C160.988 28.4944 161.423 28.6389 161.914 28.6389L167.94 28.6379ZM172.728 31.912H160.207C158.8 31.912 157.6 31.4747 156.607 30.6001C155.615 29.7246 155.118 28.618 155.118 27.2794C155.118 25.8792 155.57 24.7213 156.468 23.8049C157.372 22.8881 158.499 22.4303 159.86 22.4303L167.94 22.4296V21.5657C167.94 21.2971 167.89 21.0657 167.79 20.8703C167.69 20.6743 167.526 20.4429 167.304 20.1752C166.992 19.8461 166.673 19.6349 166.339 19.5424C166.003 19.4493 165.535 19.4035 164.938 19.4035H156.29V15.8822H163.722H165.161C166.79 15.8822 168.006 16.0104 168.81 16.2681C169.614 16.5251 170.305 16.9113 170.886 17.4265C171.622 18.1058 172.113 18.8473 172.358 19.6502C172.604 20.453 172.727 21.4833 172.727 22.7385L172.728 31.912ZM152.373 21.349V31.8815H147.653V22.1671C147.653 21.8741 147.641 21.5343 147.618 21.1435C147.597 20.7467 147.418 20.3965 147.083 20.0882C146.749 19.7738 146.408 19.5729 146.062 19.4808C145.715 19.3876 145.286 19.3418 144.773 19.3418L140.789 19.341V31.8815H136.103V8.1876H140.789V15.8822H146.564C147.524 15.8822 148.288 15.9594 148.869 16.1139C149.448 16.2677 150.051 16.6078 150.688 17.1326C151.323 17.6582 151.759 18.2505 152.005 18.9089C152.249 19.5684 152.373 20.3813 152.373 21.349ZM128.101 28.3906V19.2792H123.783C122.578 19.2792 121.584 19.7225 120.803 20.6077C120.022 21.4931 119.631 22.5432 119.631 23.7582C119.631 24.9732 119.988 26.0492 120.702 26.9858C121.417 27.9229 122.377 28.3916 123.581 28.3916L128.101 28.3906ZM132.754 31.8815H121.874C119.776 31.8815 118.036 31.0169 116.652 29.2875C115.379 27.6809 114.743 25.7968 114.743 23.6345C114.743 21.5541 115.458 19.7433 116.885 18.1986C118.315 16.654 120.1 15.8822 122.242 15.8822H128.235V8.1876H132.754V31.8815ZM111.998 31.8815H107.345V21.349C107.345 21.0809 107.278 20.8391 107.144 20.6231C107.01 20.4072 106.82 20.1957 106.575 19.9905C106.128 19.6395 105.615 19.4655 105.035 19.4655L100.482 19.4646V31.8815H95.8285V15.8822H104.733C106.318 15.8822 107.467 15.9643 108.182 16.1292C109.298 16.3761 110.191 16.9216 110.86 17.766C111.619 18.7545 111.998 19.8355 111.998 21.0092V31.8815ZM87.6927 28.6379V25.4876H81.8014C81.2427 25.4876 80.7688 25.6372 80.3779 25.9357C79.9876 26.2339 79.7922 26.6308 79.7922 27.1252C79.7922 27.5573 79.9818 27.9175 80.3614 28.2058C80.7404 28.4944 81.1757 28.6389 81.6673 28.6389L87.6927 28.6379ZM92.4801 31.912H79.9594C78.5536 31.912 77.3539 31.4747 76.3608 30.6001C75.3679 29.7246 74.8714 28.618 74.8714 27.2794C74.8714 25.8792 75.323 24.7213 76.2209 23.8049C77.1252 22.8881 78.2521 22.4303 79.6137 22.4303L87.6927 22.4296V21.5657C87.6927 21.2971 87.6428 21.0657 87.5429 20.8703C87.4422 20.6743 87.2795 20.4429 87.0569 20.1752C86.7451 19.8461 86.4265 19.6349 86.0919 19.5424C85.7564 19.4493 85.2883 19.4035 84.6911 19.4035H76.043V15.8822H83.4748H84.9137C86.5435 15.8822 87.7598 16.0104 88.5636 16.2681C89.3667 16.5251 90.0586 16.9113 90.6387 17.4265C91.3758 18.1058 91.866 18.8473 92.1126 19.6502C92.3573 20.453 92.4801 21.4833 92.4801 22.7385V31.912ZM72.8622 27.001C72.8622 28.36 72.3878 29.5241 71.4396 30.4917C70.4912 31.4594 69.2917 31.9433 67.8407 31.9433H56.3578V29.0394H65.7984C66.4682 29.0394 67.0321 28.886 67.4892 28.5768C67.9466 28.2679 68.1756 27.8252 68.1756 27.2484C68.1756 25.9097 67.1935 25.2412 65.2293 25.2412L60.4086 25.2403C59.3821 25.2403 58.3893 24.7879 57.4295 23.8818C56.4695 22.976 55.9895 21.9977 55.9895 20.9476C55.9895 19.4646 56.3468 18.2709 57.061 17.3646C57.8869 16.3349 59.1032 15.8206 60.7098 15.8206L71.7579 15.8203V18.8473H61.9151C61.5361 18.8473 61.2067 19.0173 60.9275 19.3571C60.6486 19.6959 60.509 20.0828 60.509 20.5147C60.509 20.9887 60.693 21.3954 61.0616 21.7351C61.4301 22.0746 61.8704 22.245 62.3843 22.245H67.5731C69.2023 22.245 70.4912 22.6928 71.4396 23.5881C72.3878 24.4841 72.8622 25.622 72.8622 27.001Z" fill="var(--fill-0, #333338)"/>
<path id="Vector_2" fill-rule="evenodd" clip-rule="evenodd" d="M34.7573 36.713L34.757 36.7137L34.7542 36.713H34.7573ZM27.7487 22.7994C22.7126 23.7015 18.1309 24.5679 16.6026 25.1876C15.603 24.7129 14.5512 24.2107 13.4441 23.6781C11.8218 22.9429 12.1636 21.441 13.1506 20.1421C15.7811 18.8386 19.5245 17.909 23.5862 17.1035C24.2631 18.0431 24.9586 18.9906 25.6538 19.9385C26.3598 20.9001 27.0663 21.8617 27.7487 22.7994ZM46.4688 17.9994C43.4592 19.7004 39.2078 20.6986 34.3589 21.6104C33.2442 20.0017 32.0342 18.3532 30.8246 16.7047L30.2234 15.886C36.1965 14.8234 41.9121 13.7827 43.1963 13.1176C43.8048 13.414 44.428 13.7189 45.0694 14.0339C46.8396 14.8072 47.721 16.4325 46.4688 17.9994Z" fill="var(--fill-0, #B7B7B6)"/>
<path id="Vector_3" fill-rule="evenodd" clip-rule="evenodd" d="M45.0694 14.0339C29.1743 6.23002 23.5455 4.08492 23.1266 4.81052C22.673 5.59718 26.7464 11.1494 30.8246 16.705C35.9584 23.6997 41.097 30.7031 38.9165 34.5627C36.8045 38.3012 30.2847 38.315 10.552 28.8105C8.31965 27.6408 7.95601 22.441 13.1517 20.1418C12.1636 21.4398 11.906 22.8785 13.4441 23.6784C27.8441 30.6041 32.9898 32.5378 33.3534 31.8939C33.821 31.0664 29.7352 25.4984 25.6538 19.9388C20.5197 12.9423 15.3899 5.95072 17.6124 2.09758C19.7948 -1.68593 27.9845 -0.885837 48.0101 8.94663C50.9903 10.3231 52.8596 14.062 46.4689 18.0003C47.7229 16.4325 46.8399 14.8078 45.0694 14.0339Z" fill="var(--fill-0, #00A4DC)"/>
<path id="Vector_4" fill-rule="evenodd" clip-rule="evenodd" d="M5.24789 6.28107C8.14629 6.28107 10.4964 8.44907 10.4964 11.1233C10.4964 13.7971 8.14629 15.9655 5.24789 15.9655C2.34982 15.9648 0 13.7971 0 11.1233C0 8.44884 2.34982 6.28107 5.24789 6.28107Z" fill="var(--fill-0, #F68136)"/>
<path id="Vector_5" fill-rule="evenodd" clip-rule="evenodd" d="M210.207 14.2635V10.2557H211.067L212.095 13.0931C212.191 13.3569 212.259 13.5553 212.302 13.6869C212.352 13.5407 212.43 13.3266 212.535 13.044L213.58 10.2557H214.349V14.2635H213.798V10.9105L212.53 14.2635H212.013L210.758 10.8491V14.2635H210.207ZM207.616 14.2635V10.7261H206.184V10.2557H209.625V10.7261H208.193V14.2635H207.616Z" fill="var(--fill-0, #48484F)"/>
</g>
</svg>
