<svg xmlns="http://www.w3.org/2000/svg" width="184" height="145" viewBox="0 0 184 145" fill="none">
  <g transform="translate(44.655,51.555)" fill="#B7B7B6">
    <path d="M 81.339 92.734 L 81.338 92.737 L 81.328 92.734 L 81.339 92.734 Z M 55.933 38.051 C 37.677 41.597 21.069 45.002 15.529 47.437 C 11.905 45.572 8.092 43.598 4.079 41.504 C -1.801 38.615 -0.563 32.713 3.015 27.607 C 12.551 22.485 26.12 18.831 40.844 15.665 C 43.298 19.358 45.819 23.082 48.339 26.807 C 50.898 30.587 53.459 34.366 55.933 38.051 Z M 123.793 19.186 C 112.883 25.871 97.472 29.795 79.895 33.378 C 75.854 27.056 71.468 20.577 67.083 14.098 L 64.904 10.88 C 86.556 6.704 107.275 2.614 111.93 0 C 114.136 1.165 116.395 2.363 118.72 3.601 C 125.137 6.641 128.332 13.028 123.793 19.186 Z" fill-rule="evenodd"></path>
  </g>
  <g transform="translate(32.63,0)" fill="#00A4DC">
    <path d="M 130.745 55.156 C 73.126 24.485 52.721 16.054 51.203 18.906 C 49.559 21.998 64.324 43.819 79.108 65.654 C 97.718 93.144 116.345 120.668 108.441 135.837 C 100.785 150.53 77.151 150.584 5.62 113.23 C -2.472 108.633 -3.79 88.197 15.044 79.161 C 11.462 84.262 10.528 89.916 16.104 93.06 C 68.304 120.279 86.957 127.879 88.275 125.348 C 89.97 122.096 75.159 100.213 60.364 78.363 C 41.753 50.865 23.158 23.387 31.214 8.244 C 39.125 -6.626 68.813 -3.481 141.405 35.162 C 152.208 40.571 158.984 55.266 135.818 70.744 C 140.364 64.582 137.163 58.197 130.745 55.156 Z" fill-rule="evenodd"></path>
  </g>
  <g transform="translate(0,24.687)" fill="#F68136">
    <path d="M 19.023 0 C 29.53 0 38.049 8.521 38.049 19.031 C 38.049 29.539 29.53 38.061 19.023 38.061 C 8.518 38.059 0 29.539 0 19.031 C 0 8.52 8.518 0 19.023 0 Z" fill-rule="evenodd"></path>
  </g>
</svg>