<svg xmlns="http://www.w3.org/2000/svg" width="16.000" height="15.609" viewBox="0 0 16.000 15.609" fill="none">
  <path d="M 14.927 3.984 C 14.211 2.759 13.241 1.788 12.015 1.073 C 10.79 0.358 9.451 0 8 0 C 6.549 0 5.21 0.358 3.984 1.073 C 2.759 1.788 1.788 2.759 1.073 3.984 C 0.358 5.21 0 6.548 0 8 C 0 9.743 0.509 11.31 1.526 12.703 C 2.543 14.095 3.858 15.058 5.469 15.593 C 5.656 15.628 5.795 15.603 5.885 15.52 C 5.975 15.437 6.021 15.333 6.021 15.208 C 6.021 15.187 6.019 15 6.015 14.645 C 6.012 14.337 6.01 14.028 6.01 13.719 L 5.77 13.76 C 5.618 13.788 5.425 13.8 5.192 13.797 C 4.96 13.793 4.718 13.769 4.468 13.724 C 4.218 13.679 3.986 13.575 3.771 13.411 C 3.555 13.248 3.403 13.035 3.312 12.771 L 3.208 12.531 C 3.139 12.372 3.029 12.194 2.88 12 C 2.731 11.805 2.58 11.674 2.427 11.604 L 2.354 11.552 C 2.305 11.517 2.26 11.475 2.219 11.427 C 2.177 11.378 2.146 11.33 2.125 11.281 C 2.104 11.232 2.121 11.192 2.177 11.161 C 2.233 11.13 2.333 11.114 2.479 11.114 L 2.687 11.146 C 2.826 11.173 2.998 11.257 3.203 11.396 C 3.408 11.534 3.576 11.715 3.708 11.937 C 3.868 12.222 4.06 12.439 4.286 12.588 C 4.512 12.737 4.739 12.812 4.968 12.812 C 5.198 12.812 5.395 12.795 5.562 12.76 C 5.729 12.725 5.885 12.673 6.031 12.604 C 6.093 12.138 6.264 11.781 6.541 11.531 C 6.145 11.489 5.79 11.427 5.474 11.343 C 5.158 11.26 4.831 11.125 4.495 10.937 C 4.158 10.749 3.878 10.517 3.656 10.239 C 3.434 9.961 3.251 9.597 3.109 9.145 C 2.967 8.694 2.896 8.173 2.896 7.583 C 2.896 6.742 3.17 6.027 3.719 5.437 C 3.462 4.805 3.486 4.097 3.791 3.312 C 3.993 3.25 4.292 3.297 4.687 3.453 C 5.083 3.609 5.373 3.743 5.557 3.854 C 5.741 3.965 5.889 4.059 6 4.135 C 6.646 3.955 7.312 3.864 8 3.864 C 8.687 3.864 9.354 3.955 10 4.135 L 10.396 3.885 C 10.666 3.718 10.986 3.566 11.354 3.427 C 11.722 3.288 12.003 3.25 12.198 3.312 C 12.51 4.097 12.538 4.805 12.281 5.437 C 12.83 6.027 13.104 6.743 13.104 7.583 C 13.104 8.173 13.033 8.696 12.891 9.151 C 12.748 9.605 12.564 9.97 12.339 10.244 C 12.113 10.519 11.832 10.75 11.495 10.937 C 11.158 11.124 10.832 11.26 10.516 11.343 C 10.2 11.427 9.844 11.489 9.448 11.531 C 9.809 11.843 9.989 12.336 9.989 13.01 L 9.989 15.208 C 9.989 15.333 10.033 15.437 10.12 15.52 C 10.207 15.603 10.344 15.628 10.531 15.593 C 12.142 15.058 13.457 14.095 14.474 12.702 C 15.491 11.31 16 9.743 16 7.999 C 16 6.548 15.642 5.21 14.927 3.984 Z" fill="currentColor" fill-rule="nonzero"></path>
</svg>